<svg width="800" height="800" viewBox="0 0 800 800" fill="none" xmlns="http://www.w3.org/2000/svg">
<rect width="800" height="800" fill="#CCCCCC"/>
<path d="M572.645 227.333H227.312C203.505 227.333 184.145 246.694 184.145 270.5V529.5C184.145 553.306 203.505 572.667 227.312 572.667H572.645C596.451 572.667 615.812 553.306 615.812 529.5V270.5C615.812 246.694 596.451 227.333 572.645 227.333ZM281.27 292.083C289.856 292.083 298.091 295.494 304.163 301.566C310.234 307.637 313.645 315.872 313.645 324.458C313.645 333.045 310.234 341.279 304.163 347.351C298.091 353.422 289.856 356.833 281.27 356.833C272.684 356.833 264.449 353.422 258.378 347.351C252.306 341.279 248.895 333.045 248.895 324.458C248.895 315.872 252.306 307.637 258.378 301.566C264.449 295.494 272.684 292.083 281.27 292.083ZM399.978 507.917H248.895L335.228 400L367.603 443.167L432.353 356.833L551.062 507.917H399.978Z" fill="#424242"/>
</svg>
